Regis.sfdir
StartChar: comma
Encoding: 44 44 50
Width: 264
VWidth: 0
Flags: W
HStem: -7 129.5<80.0067 133.787>
VStem: 135 68<-38.1883 -7>
LayerCount: 2
Fore
SplineSet
96 -140 m 1
 92.481560256 -143.078634776 88.7696921021 -144.368056761 85.2365801816 -144.368056761 c 0
 75.9163150736 -144.368056761 67.84 -135.395074442 67.84 -126.624 c 0
 67.84 -123.6 68.676107778 -120.489884524 71 -118 c 0
 113 -73 135 -32.080078125 135 -7 c 1
 129 -7 61.25 -2.00051440111 61.25 58.75 c 3
 61.25 93.95703125 89.79296875 122.5 125 122.5 c 3
 173.002604096 122.5 203 82 203 37 c 3
 203 -25 150 -98 96 -140 c 1
EndSplineSet
Validated: 1
EndChar
StartChar: hyphen
Encoding: 45 45 52
Width: 285
Flags: W
HStem: 174 55<45 240>
VStem: 45 195<174 229>
LayerCount: 2
Fore
SplineSet
45 174 m 1
 45 229 l 1
 240 229 l 1
 240 174 l 1
 45 174 l 1
EndSplineSet
EndChar
StartChar: period
Encoding: 46 46 10
Width: 250
VWidth: 0
Flags: HMW
LayerCount: 2
Fore
SplineSet
125 122.5 m 4
 160.20703125 122.5 188.75 93.9580078125 188.75 58.75 c 4
 188.75 23.54296875 160.208007812 -5 125 -5 c 4
 89.79296875 -5 61.25 23.5419921875 61.25 58.75 c 4
 61.25 93.95703125 89.79296875 122.5 125 122.5 c 4
EndSplineSet
Validated: 1
EndChar
StartChar: colon
Encoding: 58 58 49
Width: 250
VWidth: 0
Flags: W
HStem: -5 127.5<77.8115 172.189> 322.5 127.5<77.8115 172.189>
VStem: 61.25 127.5<11.5615 105.939 339.061 433.439>
LayerCount: 2
Fore
SplineSet
125 450 m 4
 160.20703125 450 188.75 421.458007812 188.75 386.25 c 4
 188.75 351.04296875 160.208007812 322.5 125 322.5 c 4
 89.79296875 322.5 61.25 351.041992188 61.25 386.25 c 4
 61.25 421.45703125 89.79296875 450 125 450 c 4
125 122.5 m 0
 160.20703125 122.5 188.75 93.9580078125 188.75 58.75 c 0
 188.75 23.54296875 160.208007812 -5 125 -5 c 0
 89.79296875 -5 61.25 23.5419921875 61.25 58.75 c 0
 61.25 93.95703125 89.79296875 122.5 125 122.5 c 0
EndSplineSet
Validated: 1
EndChar
StartChar: semicolon
Encoding: 59 59 51
Width: 250
VWidth: 0
Flags: W
HStem: -7 129.5<80.0067 133.787> 322.5 127.5<77.8115 172.189>
VStem: 61.25 127.5<339.061 433.439> 135 68<-38.1883 -7>
LayerCount: 2
Fore
SplineSet
125 450 m 4xe0
 160.20703125 450 188.75 421.458007812 188.75 386.25 c 4
 188.75 351.04296875 160.208007812 322.5 125 322.5 c 4
 89.79296875 322.5 61.25 351.041992188 61.25 386.25 c 4
 61.25 421.45703125 89.79296875 450 125 450 c 4xe0
96 -140 m 1
 92.481560256 -143.078634776 88.7696921021 -144.368056761 85.2365801816 -144.368056761 c 0
 75.9163150736 -144.368056761 67.84 -135.395074442 67.84 -126.624 c 0
 67.84 -123.6 68.676107778 -120.489884524 71 -118 c 0
 113 -73 135 -32.080078125 135 -7 c 1xd0
 129 -7 61.25 -2.00051440111 61.25 58.75 c 3xe0
 61.25 93.95703125 89.79296875 122.5 125 122.5 c 3
 173.002604096 122.5 203 82 203 37 c 3xd0
 203 -25 150 -98 96 -140 c 1
EndSplineSet
Validated: 1
EndChar
StartChar: B
Encoding: 66 66 45
Width: 575
VWidth: 0
Flags: MW
LayerCount: 2
Fore
SplineSet
265 340 m 2
 193 340 l 1
 193 52 l 1
 226 52 l 2
 326 52 435 61.9619140625 435 181.5 c 3
 435 266.147460938 384 340 265 340 c 2
234 372 m 2
 333 372 397 445.993164062 397 517 c 3
 397 613.254882812 320 650 269 650 c 2
 193 650 l 1
 193 372 l 1
 234 372 l 2
388.315429688 369.616210938 m 1
 435 356 530 321 530 177.5 c 3
 530 72.95703125 452 0 287 0 c 1
 193 0 l 1
 29 0 l 1
 29 0 30 43 34 45 c 0
 52 54 101 40 101 75 c 2
 101 625 l 2
 101 660 51 645 34 655 c 0
 30 657 29 700 29 700 c 1
 325 700 l 2
 441 700 489 602 489 533 c 3
 489 462 437.631835938 397.9140625 388.315429688 369.616210938 c 1
EndSplineSet
Validated: 1
EndChar
StartChar: C
Encoding: 67 67 48
Width: 624
VWidth: 0
Flags: HW
LayerCount: 2
Fore
SplineSet
373.5 35 m 3
 197.655608563 35 110 210 110 350 c 3
 110 490 192.5 645 332.5 645 c 3
 413.481114418 645 508 616 537 518 c 1
 544.933333333 504.933333333 555.044444444 501.448888889 563.573037037 501.448888889 c 0
 573.32 501.448888889 581 506 581 506 c 10
 581 506 580 559 575 629 c 1
 500 681 428.021934326 700 332.5 700 c 3
 155.5 700 10 523 10 335 c 19
 10 142 155.5 -10 332.5 -10 c 3
 520.010666363 -10 597 78 597 84 c 1
 604 188 l 1
 564 182 l 1
 551 114 482.904756934 35 373.5 35 c 3
EndSplineSet
EndChar
StartChar: E
Encoding: 69 69 39
Width: 583
VWidth: 0
Flags: HMW
LayerCount: 2
Fore
SplineSet
554 0 m 13
 29 0 l 5
 29 0 30 43 34 45 c 4
 52 54 101 40 101 75 c 6
 101 625 l 6
 101 660 51 645 34 655 c 4
 30 657 29 700 29 700 c 5
 529 700 l 5
 529 525 l 5
 447 525 528 650 369 650 c 6
 193 650 l 5
 193 357.5 l 5
 324 357.5 l 6
 359 358 374 455 374 455 c 5
 404 460 l 5
 404 210 l 5
 374 215 l 5
 374 215 359 312 324 312.5 c 6
 193 312.5 l 5
 193 60 l 21
 394 60 l 6
 553 60 472 185 554 185 c 5
 554 0 l 13
EndSplineSet
Validated: 524289
EndChar
StartChar: F
Encoding: 70 70 40
Width: 558
VWidth: 0
Flags: HMW
LayerCount: 2
Fore
SplineSet
29 700 m 1
 529 700 l 1
 529 525 l 1
 447 525 528 650 369 650 c 2
 193 650 l 1
 193 357.5 l 1
 324 357.5 l 2
 359 358 374 455 374 455 c 1
 404 460 l 1
 404 210 l 1
 374 215 l 1
 374 215 359 312 324 312.5 c 2
 193 312.5 l 1
 193 75 l 2
 193 40 244 55 261 45 c 0
 265 43 266 0 266 0 c 1
 29 0 l 1
 29 0 30 43 34 45 c 0
 52 54 101 40 101 75 c 2
 101 625 l 2
 101 660 51 645 34 655 c 0
 30 657 29 700 29 700 c 1
EndSplineSet
EndChar
StartChar: H
Encoding: 72 72 36
Width: 698
VWidth: 0
Flags: HMW
LayerCount: 2
Fore
SplineSet
96 625 m 2
 96 660 46 645 29 655 c 0
 25 657 24 700 24 700 c 1
 249 700 l 1
 249 700 248 657 244 655 c 0
 227 645 176 660 176 625 c 2
 176 376 l 1
 512 376 l 1
 512 625 l 2
 512 660 461 645 444 655 c 0
 440 657 439 700 439 700 c 1
 664 700 l 1
 664 700 663 657 659 655 c 0
 642 645 592 660 592 625 c 2
 592 75 l 2
 592 40 642 55 659 45 c 0
 663 43 664 0 664 0 c 1
 439 0 l 1
 439 0 440 43 444 45 c 0
 461 55 512 40 512 75 c 2
 512 321 l 1
 176 321 l 1
 176 75 l 2
 176 40 227 55 244 45 c 0
 248 43 249 0 249 0 c 1
 24 0 l 1
 24 0 25 43 29 45 c 0
 46 55 96 40 96 75 c 2
 96 625 l 2
EndSplineSet
EndChar
StartChar: I
Encoding: 73 73 37
Width: 295
VWidth: 0
Flags: HMW
LayerCount: 2
Fore
SplineSet
188 75 m 0
 188 40 239 55 256 45 c 0
 260 43 261 0 261 0 c 1
 24 0 l 1
 24 0 25 43 29 45 c 0
 46 55 96 40 96 75 c 2
 96 625 l 2
 96 660 46 645 29 655 c 0
 25 657 24 700 24 700 c 1
 261 700 l 1
 261 700 260 657 256 655 c 0
 239 645 188 660 188 625 c 0
 188 75 l 0
EndSplineSet
Validated: 1
EndChar
StartChar: J
Encoding: 74 74 47
Width: 355
VWidth: 0
Flags: W
HStem: -170 60<105.274 160.05> 655 45<105.785 173.75 268.275 337.215>
VStem: 24 78<-108.01 -47.7224> 175 92<-99.6387 648.231>
LayerCount: 2
Fore
SplineSet
175 -13 m 2
 175 625 l 2
 175 660 125 645 108 655 c 0
 104 657 103 700 103 700 c 1
 340 700 l 1
 340 700 339 657 335 655 c 0
 318 645 267 660 267 625 c 0
 267 3 l 2
 267 -106 220.140338792 -170 131 -170 c 3
 60 -170 24 -134 24 -90 c 27
 24 -64 42 -41 68 -41 c 27
 84 -41 102 -49 102 -72 c 3
 102 -100.16015625 119 -110 132 -110 c 3
 153 -110 175 -86 175 -13 c 2
EndSplineSet
Validated: 524289
EndChar
StartChar: L
Encoding: 76 76 41
Width: 588
VWidth: 0
Flags: W
HStem: 0 60<184.53 478.326> 0 45<31.7847 99.7739> 655 45<31.8429 99.75 184.882 254.215>
VStem: 101 83<66.3889 90 625 648.283>
LayerCount: 2
Fore
SplineSet
184 626 m 1xb0
 184 662 234.359138343 646.179569172 252 655 c 0
 256 657 257 700 257 700 c 1
 29 700 l 17
 29 700 30.1453130055 657.267462938 34 655 c 0
 51 645 101 660 101 625 c 2
 101 75 l 2
 101 40 52 54 34 45 c 0
 30 43 29 0 29 0 c 1
 559 0 l 17x70
 559 185 l 1
 477 185 553 60 394 60 c 0
 192 60 184 61 184 90 c 1
 184 626 l 1xb0
EndSplineSet
EndChar
StartChar: M
Encoding: 77 77 0
Width: 850
VWidth: 0
Flags: HMW
LayerCount: 2
Fore
SplineSet
20 700 m 1
 20 700 203.75 699 205 697.5 c 0
 206.25 696.25 431 165 431 165 c 1
 431 165 644.25 696.25 645.5 697.5 c 0
 646.75 698.75 820 700 820 700 c 1
 820 700 819.330078125 657.5 815 655 c 0
 797.6796875 645 732.5 655 732.5 645 c 2
 732.5 75 l 2
 732.5 40 797.6796875 54 815 44 c 0
 819.330078125 41.5 820 0 820 0 c 25
 545 0 l 25
 545 0 545.669921875 42.5 550 45 c 0
 554.719726562 47.73046875 563.58984375 48.58984375 574 49.1201171875 c 0
 601.780273438 50.5302734375 640.5 49.5400390625 640.5 75 c 2
 640.5 575 l 1
 424 11 l 2
 420.838867188 2.783203125 413 -10 403 -10 c 0
 397 -10 389.88671875 -6.61328125 384 7 c 2
 157.5 575 l 1
 157.5 75 l 2
 157.5 40 222.6796875 55 240 45 c 0
 244.330078125 42.5 245 0 245 0 c 25
 20 0 l 25
 20 0 20.669921875 42.5 25 45 c 0
 42.3203125 55 107.5 40 107.5 75 c 2
 107.5 635 l 1
 102.5 660 42.3203125 650 25 660 c 0
 20.669921875 662.5 20 700 20 700 c 1
EndSplineSet
Validated: 33
EndChar
StartChar: O
Encoding: 79 79 42
Width: 690
VWidth: 0
Flags: W
HStem: 0 45<253.394 414.293> 645 55<250.707 414.293>
VStem: 10 100<228.696 471.08> 555 100<227.956 470.244>
LayerCount: 2
Fore
SplineSet
332.5 645 m 3
 192.5 645 110 495 110 355 c 3
 110 215 192.5 45 332.5 45 c 3
 472.5 45 555 205 555 345 c 3
 555 485 472.5 645 332.5 645 c 3
10 350 m 8
 10 543 155.5 700 332.5 700 c 0
 509.5 700 655 543 655 350 c 0
 655 157 509.5 0 332.5 0 c 0
 155.5 0 10 157 10 350 c 8
EndSplineSet
EndChar
StartChar: P
Encoding: 80 80 44
Width: 544
VWidth: 0
Flags: W
HStem: 0 45<31.7847 99.7739 194.275 263.215> 311.5 46<193 365.615> 650 50<32.9525 100.856 193 372.163>
VStem: 101 92<51.7771 314.5 359.5 648.507> 430 100<420.755 592.32>
LayerCount: 2
Fore
SplineSet
287 311.5 m 0
 219 311.5 193 314.5 193 314.5 c 1
 193 75 l 2
 193 40 244 55 261 45 c 0
 265 43 266 0 266 0 c 1
 29 0 l 1
 29 0 30 43 34 45 c 0
 52 54 101 40 101 75 c 2
 101 625 l 2
 101 660 51 645 34 655 c 0
 30 657 29 700 29 700 c 1
 325 700 l 2
 441 700 530 639.064453125 530 514 c 3
 530 367.9453125 408.88 311.5 287 311.5 c 0
295 650 m 2
 193 650 l 1
 193 359.5 l 1
 193 359.5 234 357.5 257 357.5 c 3
 349 357.5 430 382.96087622 430 498 c 3
 430 612.01754251 369 650 295 650 c 2
EndSplineSet
Validated: 524289
EndChar
StartChar: Q
Encoding: 81 81 46
Width: 690
VWidth: 0
Flags: HMW
LayerCount: 2
Fore
SplineSet
10 335 m 0
 10 523 155.5 700 332.5 700 c 0
 509.5 700 655 538 655 345 c 0
 655 175.972765263 543.400628606 30.7227161835 396.77970319 -2.75283078347 c 1
 414.104234435 -71.5165778242 485.143554688 -156 557 -156 c 0
 664 -156 705 -119 711 -119 c 0
 725.317821063 -119 734 -131.535750803 734 -149 c 0
 734 -172.021728866 651.004882812 -206 539 -206 c 0
 388 -206 313.657840955 -97.988096905 280.371308087 -5.53583876847 c 1
 127.809853122 20.8638240743 10.0000000013 161.333272938 10 335 c 0
332.5 645 m 0
 192.5 645 110 490 110 350 c 0
 110 210 192.5 35 332.5 35 c 0
 472.5 35 555 190 555 330 c 0
 555 470 472.5 645 332.5 645 c 0
EndSplineSet
Validated: 524289
EndChar
StartChar: R
Encoding: 82 82 43
Width: 544
VWidth: 0
Flags: HW
LayerCount: 2
Fore
SplineSet
287 311.5 m 2
 193 312.5 l 1
 193 75 l 2
 193 40 244 55 261 45 c 0
 265 43 266 0 266 0 c 1
 29 0 l 1
 29 0 30 43 34 45 c 0
 52 54 101 40 101 75 c 2
 101 625 l 2
 101 660 51 645 34 655 c 0
 30 657 29 700 29 700 c 1
 325 700 l 2
 441 700 530 639.064453125 530 514 c 3
 530 367.9453125 408.874504922 310.203462714 287 311.5 c 2
295 650 m 2
 193 650 l 1
 193 357.5 l 1
 257 357.5 l 2
 349 357.5 430 382.96087622 430 498 c 3
 430 612.01754251 369 650 295 650 c 2
EndSplineSet
EndChar
StartChar: T
Encoding: 84 84 38
Width: 641
VWidth: 0
Flags: W
HStem: 0 45<209.785 277.75 363.275 432.215> 655 45<109.674 279 362 531.326>
VStem: 279 83<51.7686 655>
LayerCount: 2
Fore
SplineSet
362 655 m 9
 362 75 l 2
 362 40 413 55 430 45 c 0
 434 43 435 0 435 0 c 1
 207 0 l 1
 207 0 208 43 212 45 c 0
 229 55 279 40 279 75 c 2
 279 655 l 1
 194 655 l 2
 35 655 111 530 29 530 c 1
 29 700 l 9
 612 700 l 1
 612 530 l 1
 530 530 606 655 447 655 c 2
 362 655 l 9
EndSplineSet
EndChar
StartChar: a
Encoding: 97 97 33
Width: 479
VWidth: 0
Flags: HMW
LayerCount: 2
Fore
SplineSet
309 230 m 1
 231 230 120 210.005859375 120 124 c 3
 120 93 143.963867188 50 200 50 c 3
 242.047851562 50 277 68 309 96 c 1
 309 230 l 1
229 450 m 3
 333.077148438 450 382 413 383 353 c 0
 383 353 383 316.560546875 383 246 c 1
 383 89 l 2
 383 75 386.961914062 49 400 49 c 3
 429.017578125 49 435 61 442 61 c 3
 449 61 450 58 450 43 c 3
 450 16.7509765625 413.05078125 -10 374 -10 c 3
 347.694335938 -10 326 4 317 40 c 1
 278 5 211 -10 167 -10 c 3
 104 -10 41 36 41 106 c 3
 41 242 185 271 309 271 c 1
 309 313.5234375 309 345 309 345 c 3
 309 372.104492188 286.073242188 408 225 408 c 3
 186.947265625 408 167.819335938 393.758789062 153 374 c 0
 147 366 128 320 86 320 c 0
 50 320 47 337 47 345 c 3
 47 387.049804688 120.995117188 450 229 450 c 3
EndSplineSet
EndChar
StartChar: b
Encoding: 98 98 18
Width: 528
VWidth: 0
Flags: HMW
LayerCount: 2
Fore
SplineSet
167.5 77 m 1
 191 47 221.947265625 35 260 35 c 0
 347 35 400 102.897460938 400 225 c 0
 400 307 360 392 278 392 c 0
 230 392 195 373 167.5 350 c 1
 167.5 77 l 1
160 0 m 2
 26 0 l 1
 26 0 28.669921875 40.5 33 43 c 0
 50.3203125 53 87.5 40 87.5 75 c 2
 87.5 689 l 2
 87.27734375 689 81.5 702.208007812 62 712 c 0
 42.5 721.791992188 26 728.168945312 26 734 c 0
 26 750.125 26 739 93 769 c 0
 153.049804688 795.887695312 146 799 153 800 c 0
 162.75 801.392578125 167.5 789 167.5 781 c 2
 167.5 395 l 1
 200 429 244.990234375 450 298 450 c 0
 384.0234375 450 480 374.013671875 480 225 c 0
 480 93.99609375 396 -10 271 -10 c 0
 243.997070312 -10 195 0 167.5 25 c 1
 167 16 164.123046875 0 160 0 c 2
EndSplineSet
EndChar
StartChar: c
Encoding: 99 99 13
Width: 423
VWidth: 0
Flags: HMW
LayerCount: 2
Fore
SplineSet
238.899414062 392.80078125 m 0
 148.828125 392.80078125 111 313.774414062 111 218 c 3
 111 103 189 66 210 59 c 0
 229 52 247 49 264 49 c 0
 302 49 337.580078125 66 378.580078125 102 c 1
 378.580078125 102 381.580078125 104 391.580078125 94 c 0
 401.580078125 84 398.580078125 79 398.580078125 79 c 1
 385.580078125 46 321 -11 249 -11 c 3
 124 -11 24 94 24 219 c 3
 24 344 124 450 224 450 c 3
 295 450 384 421 384 342 c 3
 384 317 350 307 338 307 c 3
 311 307 302 334 302 358 c 3
 302 381.465820312 271.200195312 392.80078125 238.899414062 392.80078125 c 0
EndSplineSet
Validated: 1
EndChar
StartChar: d
Encoding: 100 100 16
Width: 542
VWidth: 0
Flags: HMW
LayerCount: 2
Fore
SplineSet
356.5 689 m 1
 356.5 689 350.5 702.208007812 331 712 c 0
 311.5 721.791992188 295 728.168945312 295 734 c 0
 295 735.25 294.982421875 736.328125 294.982421875 737.266601562 c 0
 294.982421875 748.436523438 295 739 362 769 c 0
 422.96875 796.299804688 413.864257812 800.10546875 423.44921875 800.10546875 c 0
 432.220703125 800.10546875 436.5 788.213867188 436.5 781 c 0
 436.333007812 689.333007812 436.27734375 582.92578125 436.27734375 480.924804688 c 0
 436.27734375 276.924804688 436.5 90.5537109375 436.5 75 c 0
 436.5 40 486.6796875 55 504 45 c 0
 508.330078125 42.5 509 5 509 5 c 1
 475 1 403 -5 364 -5 c 0
 361.389648438 -5 359.413085938 13.12109375 358.126953125 29.943359375 c 1
 356.5 30 l 1
 344 14 289 -10 235 -10 c 0
 121.982421875 -10 44 78.986328125 44 225 c 0
 44 356.00390625 123.995117188 450 227 450 c 0
 287 450 328 429 356.5 397 c 1
 356.5 689 l 1
237 398 m 0
 170.810546875 398 124 335.004882812 124 225 c 0
 124 108.9609375 177 43 264 43 c 0
 302.052734375 43 340 53 356.5 85 c 1
 356.5 339 l 1
 327 369 293.008789062 398 237 398 c 0
EndSplineSet
EndChar
StartChar: e
Encoding: 101 101 8
Width: 431
VWidth: 0
Flags: HMW
LayerCount: 2
Fore
SplineSet
111 299 m 1
 315 299 l 1
 315 329 290 397 215 397 c 3
 127 397 111 299 111 299 c 1
400 250 m 1
 104 250 l 1
 103 239 103 228 103 218 c 0
 103 103 181 66 202 59 c 0
 221 52 239 49 256 49 c 0
 294 49 329.580078125 66 370.580078125 102 c 1
 370.580078125 102 373.580078125 104 383.580078125 94 c 0
 393.580078125 84 390.580078125 79 390.580078125 79 c 1
 377.580078125 46 313 -11 241 -11 c 3
 116 -11 16 94 16 219 c 3
 16 344 111 450 211 450 c 3
 316.001953125 450 400 392 400 250 c 1
EndSplineSet
EndChar
StartChar: f
Encoding: 102 102 19
Width: 355
VWidth: 0
Flags: HMW
LayerCount: 2
Fore
SplineSet
202.5 75 m 2
 202.5 40.02734375 252.6796875 55 270 45 c 0
 274.330078125 42.5 275 0 275 0 c 1
 50 0 l 1
 50 0 50.669921875 42.5 55 45 c 0
 72.3203125 55 123 40 122.5 75 c 2
 122.5 377 l 1
 95.416015625 377 70.67578125 370.40625 56.7548828125 370.40625 c 0
 49.3447265625 370.40625 45 373 45 378 c 3
 45 381.251953125 49.33984375 397.453125 55 405 c 0
 58 409 122.5 443 122.5 443 c 1
 122.5 450 l 2
 122.5 744 261.961914062 800 315 800 c 3
 399.053710938 800 435 746.064453125 435 715 c 3
 435 682.984375 423 654 388 654 c 3
 334.961914062 654 378.005859375 735 295 735 c 3
 227 735 202.5 609 202.5 450 c 2
 202.5 443 l 1
 297 443 l 1
 297 443 305 426 305 411 c 0
 305 396 297 377 297 377 c 1
 202.5 377 l 1
 202.5 75 l 2
EndSplineSet
EndChar
StartChar: g
Encoding: 103 103 31
Width: 542
VWidth: 0
Flags: HMW
LayerCount: 2
Fore
SplineSet
216 409 m 0
 152 409 115 347 115 285 c 0
 115 223 151 155 216 155 c 0
 284 155 316 214 316 276 c 0
 316 338 284 409 216 409 c 0
291 -41 m 1
 143 -41 l 1
 143 -41 74 -105.739257812 74 -144 c 3
 74 -220.006835938 162.994140625 -253 246 -253 c 3
 331 -253 458 -215 458 -118 c 3
 458 -59 419.140625 -41 291 -41 c 1
  Spiro
    291 -41 v
    143 -41 v
    125.142 -59.1683 o
    91.858 -100.337 o
    74 -144 o
    100.098 -205.992 o
    164.592 -241.654 o
    246 -253 o
    338.647 -239.583 o
    421.992 -196.051 o
    458 -118 o
    443.211 -71.849 o
    391.173 -47.8373 o
    0 0 z
  EndSpiro
117.395507812 139.470703125 m 1
 71.66015625 167.10546875 40 215.6953125 40 282 c 0
 40 390 124 450 216 450 c 0
 271.598632812 450 323.911132812 428.086914062 356.602539062 386.908203125 c 1
 375.375 405.330078125 418.470703125 443 457 443 c 0
 494 443 518 423 518 386 c 0
 518 365 498.016601562 342 467 342 c 0
 443 342 423 374 423 374 c 1
 377.53125 351.651367188 l 1
 386.1640625 331.34375 391 308.0703125 391 282 c 0
 391 174 308 113 216 113 c 0
 197.844726562 113 180.000976562 115.375976562 163.052734375 120.01953125 c 1
 150.626953125 105.569335938 131 80.548828125 131 68 c 0
 131 48.583984375 151 34 322 34 c 3
 487.112304688 34 516 -11.9951171875 516 -110 c 3
 516 -210.004882812 431 -300 249 -300 c 3
 137 -300 24 -267.51171875 24 -149 c 3
 24 -111.87890625 38 -75 94 -27 c 1
 94 -27 55 -0.0498046875 55 40 c 0
 55 76.927734375 93.1376953125 117.438476562 117.395507812 139.470703125 c 1
EndSplineSet
Validated: 1
EndChar
StartChar: h
Encoding: 104 104 6
Width: 584
VWidth: 0
Flags: HMW
LayerCount: 2
Fore
SplineSet
176.5 75 m 2
 176.5 40 226.6796875 55 244 45 c 0
 248.330078125 42.5 247 18 249 0 c 1
 24 0 l 1
 26 18 24.669921875 42.5 29 45 c 0
 46.3203125 55 96.5 40 96.5 75 c 0
 96.5 110 96.5 539 96.5 689 c 1
 96.5 689 90.5 702.208007812 71 712 c 0
 51.5 721.791992188 35 728.168945312 35 734 c 0
 35 750.125 32.060546875 737.52734375 102 769 c 0
 162 796 155 799 162 800 c 0
 171.75 801.392578125 176.5 788.600585938 176.5 781 c 2
 176.5 399.750976562 l 1
 204.623046875 421.928710938 258.502929688 457 318 457 c 0
 397.819335938 457 481.501953125 422.20703125 481.501953125 301.083007812 c 0
 481.501953125 268.783203125 481.325195312 236.541992188 481.325195312 206.778320312 c 0
 481.325195312 147.889648438 481.5 98.3330078125 481.5 75 c 0
 481.5 40 531.6796875 55 549 45 c 0
 553.330078125 42.5 554 0 554 0 c 1
 329 0 l 1
 329 0 329.669921875 42.5 334 45 c 0
 351.3203125 55 401.5 40 401.5 75 c 0
 401.5 110 401.5 275 401.5 275 c 2
 401.5 276.939453125 401.625 280.551757812 401.625 285.370117188 c 0
 401.625 317.818359375 395.939453125 405 308 405 c 0
 258.478515625 405 204.579101562 365.594726562 176.5 341.75390625 c 1
 176.5 75 l 2
EndSplineSet
Validated: 33
EndChar
StartChar: i
Encoding: 105 105 1
Width: 309
VWidth: 0
Flags: HMW
LayerCount: 2
Fore
SplineSet
93.5625 642.5 m 3
 93.5625 676.984375 121.515625 704.9375 156 704.9375 c 3
 190.484375 704.9375 218.4375 676.984375 218.4375 642.5 c 3
 218.4375 608.015625 190.484375 580.0625 156 580.0625 c 3
 121.515625 580.0625 93.5625 608.015625 93.5625 642.5 c 3
  Spiro
    93.5624 642.5 o
    102.071 673.986 o
    124.514 696.429 o
    156 704.938 o
    187.486 696.429 o
    209.929 673.986 o
    218.438 642.5 o
    209.929 611.014 o
    187.486 588.571 o
    156 580.062 o
    124.514 588.571 o
    102.071 611.014 o
    0 0 z
  EndSpiro
196.5 75 m 2
 196.5 40 246.6796875 55 264 45 c 0
 268.330078125 42.5 269 0 269 0 c 25
 44 0 l 25
 44 0 44.669921875 42.5 49 45 c 0
 66.3203125 55 116.5 40 116.5 75 c 0
 116.5 110 116.5 200 116.5 350 c 1
 116.5 350 110.5 363.208007812 91 373 c 0
 71.5 382.791992188 55 389.168945312 55 395 c 3
 55 411.125 55 400 122 430 c 0
 182.0546875 456.890625 175 460 182 461 c 0
 191.75 462.392578125 196.5 449.600585938 196.5 442 c 2
 196.5 75 l 2
EndSplineSet
EndChar
StartChar: j
Encoding: 106 106 11
Width: 276
VWidth: 0
Flags: HMW
LayerCount: 2
Fore
SplineSet
73.1298828125 642.5 m 7
 73.1298828125 676.984375 101.083007812 704.9375 135.567382812 704.9375 c 7
 170.051757812 704.9375 198.004882812 676.984375 198.004882812 642.5 c 7
 198.004882812 608.015625 170.051757812 580.0625 135.567382812 580.0625 c 7
 101.083007812 580.0625 73.1298828125 608.015625 73.1298828125 642.5 c 7
  Spiro
    73.1354 642.5 o
    81.6435 673.986 o
    104.087 696.429 o
    135.572 704.938 o
    167.058 696.429 o
    189.501 673.986 o
    198.009 642.5 o
    189.501 611.014 o
    167.058 588.571 o
    135.572 580.062 o
    104.087 588.571 o
    81.6435 611.014 o
    0 0 z
  EndSpiro
176 -119 m 2
 176 -188.584960938 84.70703125 -270 25.70703125 -300 c 1
 24.3154296875 -291.6484375 23 -284.489257812 23 -278 c 3
 23 -270.262695312 24.869140625 -263.4296875 30.70703125 -256 c 0
 45.70703125 -240 96.4970703125 -170 96.4970703125 -135 c 2
 96.4970703125 350 l 1
 96.4970703125 350 90.4970703125 363.208007812 70.9970703125 373 c 0
 51.4970703125 382.791992188 34.9970703125 389.168945312 34.9970703125 395 c 3
 34.9970703125 411.125 34.9970703125 400 101.997070312 430 c 0
 162.051757812 456.890625 154.77734375 460 161.77734375 461 c 0
 162.2734375 461.071289062 162.755859375 461.104492188 163.224609375 461.104492188 c 0
 171.970703125 461.104492188 176 449.213867188 176 442 c 2
 176 -119 l 2
EndSplineSet
EndChar
StartChar: k
Encoding: 107 107 12
Width: 562
VWidth: 0
Flags: HMW
LayerCount: 2
Fore
SplineSet
175.5 75 m 2
 175.5 40.0009765625 225.6796875 55 243 45 c 0
 247.330078125 42.5 248 0 248 0 c 1
 23 0 l 1
 23 0 23.669921875 42.5 28 45 c 0
 45.3203125 55 95.5 40 95.5 75 c 2
 95.5 689 l 1
 95.5 689 89.5 702.208007812 70 712 c 0
 50.5 721.791992188 34 728.168945312 34 734 c 0
 34 750.125 34 739 101 769 c 0
 161.0546875 795.890625 154 799 161 800 c 0
 170.75 801.392578125 175.4609375 788.600585938 175.5 781 c 2
 175.5 290 l 1
 215 290 l 1
 341 396.120117188 l 1
 341 396.120117188 275.5 398.620117188 273 401.120117188 c 0
 271.75 402.370117188 271.124023438 411.75 271.124023438 421.127929688 c 0
 271.124023438 430.499023438 271.749023438 439.869140625 273 441.120117188 c 0
 274.25 442.370117188 326.125 442.995117188 378 442.995117188 c 0
 429.875 442.995117188 491.75 442.370117188 493 441.120117188 c 0
 494.251953125 439.868164062 494.876953125 430.494140625 494.876953125 421.120117188 c 0
 494.876953125 411.74609375 494.251953125 402.37109375 493 401.120117188 c 0
 490.5 398.620117188 412 396.120117188 412 396.120117188 c 1
 276 279.5546875 l 1
 448 80 l 1
 475 52 505.6796875 55 523 45 c 0
 527.330078125 42.5 528 0 528 0 c 1
 308 0 l 1
 308 0 308.669921875 42.5 313 45 c 0
 328.297851562 53.8330078125 371.328125 58.0185546875 372.484375 70.541015625 c 0
 372.65625 72.3994140625 372 74 370 76 c 0
 370 76 233.555664062 227.942382812 218 245 c 1
 175.5 245 l 1
 175.5 75 l 2
EndSplineSet
EndChar
StartChar: l
Encoding: 108 108 5
Width: 300
VWidth: 0
Flags: HMW
LayerCount: 2
Fore
SplineSet
191.5 75 m 6
 191.5 40 241.6796875 55 259 45 c 4
 263.330078125 42.5 264 0 264 0 c 13
 39 0 l 21
 39 0 39.669921875 42.5 44 45 c 4
 61.3203125 55 111.5 40 111.5 75 c 6
 111.5 689 l 5
 111.5 689 105.5 702.208007812 86 712 c 4
 66.5 721.791992188 50 728.168945312 50 734 c 7
 50 750.125 50 739 117 769 c 4
 177.0546875 795.890625 170 799 177 800 c 4
 186.75 801.392578125 191.5 788.600585938 191.5 781 c 6
 191.5 75 l 6
EndSplineSet
EndChar
StartChar: m
Encoding: 109 109 3
Width: 858
VWidth: 0
Flags: HMW
LayerCount: 2
Fore
SplineSet
766.5 75 m 2
 766.5 40 816.6796875 55 834 45 c 0
 838.330078125 42.5 839 0 839 0 c 1
 614 0 l 1
 614 0 614.669921875 42.5 619 45 c 0
 636.3203125 55 686.5 40 686.5 75 c 2
 686.5 285.5 l 2
 686.5 317.948242188 698.439453125 405 610.5 405 c 0
 559.083984375 405 503.556640625 362.43359375 476.5 339 c 1
 476.5 75 l 2
 476.5 40 526.6796875 55 544 45 c 0
 548.330078125 42.5 549 0 549 0 c 1
 324 0 l 1
 324 0 324.669921875 42.5 329 45 c 0
 346.3203125 55 396.5 40 396.5 75 c 0
 396.5 145.083007812 396.625 215.495117188 396.625 285.370117188 c 0
 396.625 323 407.939453125 405 320 405 c 0
 270.478515625 405 214.579101562 365.594726562 186.5 341.75390625 c 1
 186.5 75 l 2
 186.5 40 236.6796875 55 254 45 c 0
 258.330078125 42.5 259 0 259 0 c 1
 34 0 l 1
 34 0 34.669921875 42.5 39 45 c 0
 56.3203125 55 106.5 40 106.5 75 c 2
 106.5 350 l 1
 106.5 350 100.5 363.208007812 81 373 c 0
 61.5 382.791992188 45 389.168945312 45 395 c 0
 45 411.125 45 400 112 430 c 0
 172.0546875 456.890625 165 460 172 461 c 0
 181.75 462.392578125 186.5 449.600585938 186.5 442 c 2
 186.5 399.750976562 l 1
 214.623046875 421.928710938 270.502929688 457 330 457 c 0
 387.245117188 457 429.4765625 439.104492188 458.40234375 384.301757812 c 1
 471.862304688 396.90625 542.619140625 457 620.5 457 c 0
 700.319335938 457 766.501953125 422.20703125 766.501953125 301.083007812 c 2
 766.5 75 l 2
EndSplineSet
EndChar
StartChar: n
Encoding: 110 110 2
Width: 582
VWidth: 0
Flags: HMW
LayerCount: 2
Fore
SplineSet
491.5 75 m 0
 491.5 40 541.6796875 55 559 45 c 0
 563.330078125 42.5 564 0 564 0 c 1
 339 0 l 1
 339 0 339.669921875 42.5 344 45 c 0
 361.3203125 55 411.5 40 411.5 75 c 0
 411.5 110 411.5 275 411.5 275 c 2
 411.5 276.939453125 411.625 280.551757812 411.625 285.370117188 c 0
 411.625 317.818359375 405.939453125 405 318 405 c 0
 268.478515625 405 214.579101562 365.594726562 186.5 341.75390625 c 1
 186.5 75 l 2
 186.5 40 236.6796875 55 254 45 c 0
 258.330078125 42.5 259 0 259 0 c 1
 34 0 l 1
 34 0 34.669921875 42.5 39 45 c 0
 56.3203125 55 106.5 40 106.5 75 c 0
 106.5 110 106.5 200 106.5 350 c 1
 106.5 350 100.5 363.208007812 81 373 c 0
 61.5 382.791992188 45 389.168945312 45 395 c 0
 45 411.125 45 400 112 430 c 4
 172.0546875 456.890625 165 460 172 461 c 0
 181.75 462.392578125 186.5 449.600585938 186.5 442 c 2
 186.5 399.750976562 l 1
 214.623046875 421.928710938 268.502929688 457 328 457 c 0
 407.819335938 457 491.501953125 422.20703125 491.501953125 301.083007812 c 0
 491.501953125 268.783203125 491.325195312 236.541992188 491.325195312 206.778320312 c 0
 491.325195312 147.889648438 491.5 98.3330078125 491.5 75 c 0
EndSplineSet
EndChar
StartChar: o
Encoding: 111 111 4
Width: 495
VWidth: 0
Flags: HMW
LayerCount: 2
Fore
SplineSet
235 405 m 31
 148 405 95 310 95 225 c 7
 95 140 147 35 235 35 c 31
 327 35 375 130 375 215 c 7
 375 300 328 405 235 405 c 31
235 450 m 23
 360 450 460 345 460 220 c 7
 460 95 360 -10 235 -10 c 7
 110 -10 10 95 10 220 c 15
 10 345 110 450 235 450 c 23
EndSplineSet
EndChar
StartChar: p
Encoding: 112 112 9
Width: 531
VWidth: 0
Flags: HMW
LayerCount: 2
Fore
SplineSet
285 392 m 3
 237 392 202 373 174.5 350 c 1
 174.5 77 l 1
 198 47 228.947265625 35 267 35 c 3
 354 35 407 102.897460938 407 225 c 3
 407 307 367 392 285 392 c 3
174.5 25 m 1
 174.5 -225 l 2
 174.5 -260 224.6796875 -245 242 -255 c 0
 246.330078125 -257.5 247 -300 247 -300 c 9
 22 -300 l 17
 22 -300 22.669921875 -257.5 27 -255 c 0
 44.3203125 -245 95 -260 94.5 -225 c 2
 94.5 350 l 1
 94.5 350 88.5 363.208007812 69 373 c 0
 49.5 382.791992188 33 389.168945312 33 395 c 3
 33 411.125 33 400 100 430 c 0
 160.0546875 456.890625 153 460 160 461 c 0
 169.75 462.392578125 174.422851562 449.99609375 174.5 442 c 2
 174.5 395 l 1
 207 429 251.990234375 450 305 450 c 3
 391.0234375 450 487 374.013671875 487 225 c 3
 487 93.99609375 403 -10 278 -10 c 3
 250.997070312 -10 202 0 174.5 25 c 1
EndSplineSet
EndChar
StartChar: q
Encoding: 113 113 20
Width: 519
VWidth: 0
Flags: HMW
LayerCount: 2
Fore
SplineSet
217 398 m 7
 150.810546875 398 104 335.004545361 104 225 c 7
 104 108.961213381 157 43 244 43 c 7
 282.052734375 43 320 53 336.5 85 c 5
 336.5 339 l 5
 307 369 273.00892786 398 217 398 c 7
336.5 30 m 5
 324 14 269 -10 215 -10 c 7
 101.982421875 -10 24 78.9863020124 24 225 c 7
 24 356.00390625 103.995117188 450 207 450 c 7
 267 450 308 429 336.5 397 c 5
 336.5 442 l 2
 336.5 449.995117188 341.151367188 454 351 454 c 2
 474 447 l 2
 478 446 478 444.048828125 478 403 c 3
 478 395 423.76953125 396.478515625 416.5 395 c 1
 416.5 -225 l 2
 416.5 -259.998046875 466.6796875 -245 484 -255 c 0
 488.330078125 -257.5 489 -300 489 -300 c 9
 264 -300 l 17
 264 -300 264.669921875 -257.5 269 -255 c 0
 286.3203125 -245 336.5 -260 336.5 -225 c 2
 336.5 30 l 5
EndSplineSet
EndChar
StartChar: r
Encoding: 114 114 14
Width: 391
VWidth: 0
Flags: HMW
LayerCount: 2
Fore
SplineSet
183.5 75 m 2
 183.5 40 238.6796875 55 256 45 c 0
 260.330078125 42.5 261 0 261 0 c 9
 31 0 l 17
 31 0 31.669921875 42.5 36 45 c 0
 53.3203125 55 103.5 40 103.5 75 c 2
 103.5 350 l 1
 103.5 350 97.5 363.208007812 78 373 c 0
 58.5 382.791992188 42 389.168945312 42 395 c 3
 42 411.125 42 400 109 430 c 0
 169.0546875 456.890625 162 460 169 461 c 0
 178.75 462.392578125 183 451 183.5 442 c 2
 183.5 381 l 0
 183.5 381 278 461 316 461 c 3
 340 461 376 436.049804688 376 396 c 3
 376 369 363 344 336 344 c 27
 305 344 297 379 266 379 c 27
 228 379 183.5 325 183.5 325 c 0
 183.5 75 l 2
EndSplineSet
EndChar
StartChar: s
Encoding: 115 115 34
Width: 381
VWidth: 0
Flags: HMW
LayerCount: 2
Fore
SplineSet
169 451.005859375 m 3
 224.008789062 451.005859375 251 442.005859375 273 429.005859375 c 1
 273 429.005859375 291 438.005859375 297 438.005859375 c 0
 305.0625 438.005859375 323 334.005859375 323 334.005859375 c 1
 323 334.005859375 322 330 302 326 c 0
 282.9609375 322.192382812 279 328.005859375 279 328.005859375 c 1
 245 372.005859375 223 404 173 404.005859375 c 24
 137 404 101 384.005859375 101 348.005859375 c 3
 101 265.994140625 341 267 341 119 c 3
 341 22.1240234375 268.005859375 -8.994140625 176 -8.994140625 c 3
 127.393554688 -8.994140625 77 2.005859375 52 17.005859375 c 1
 52 17.005859375 45 35.005859375 41 116.005859375 c 1
 41 118 70 131 73 128.005859375 c 1
 94 62 125.0078125 40.064453125 179 41.005859375 c 0
 236 42 272 68.8232421875 272 114.005859375 c 3
 272 183.116210938 41 184.997070312 41 334.005859375 c 3
 41 401.005859375 102 451.005859375 169 451.005859375 c 3
EndSplineSet
EndChar
StartChar: t
Encoding: 116 116 17
Width: 308
VWidth: 0
Flags: HMW
LayerCount: 2
Fore
SplineSet
86.5 103 m 2
 86.5 367 l 1
 86.5 367 86.2195444573 376 77 376 c 3
 38 376 20 385 20 394 c 3
 20 395.837890625 20 398.112203271 20 400 c 3
 20 413 46.619140625 414.404296875 87 452 c 0
 116 479 133.928710938 521 141 521 c 3
 150.848632812 521 167 510 166.5 502 c 2
 166.5 443 l 1
 166.5 443 260 443 275 443 c 0
 277.5 443 283 426 283 411 c 3
 283 396 277.5 377 275 377 c 0
 260 377 175 376 175 376 c 2
 165 376 166.5 365 166.5 365 c 1
 166.5 100 l 2
 167 61 188.909179688 49 211 49 c 3
 237.3828125 49 264.3359375 53.943359375 273.73046875 53.943359375 c 0
 280.10546875 53.943359375 283 44.3662109375 283 29 c 3
 283 9.9736328125 246 -10 180 -10 c 3
 108.971679688 -10 87 39 86.5 103 c 2
EndSplineSet
EndChar
StartChar: u
Encoding: 117 117 15
Width: 534
VWidth: 0
Flags: HMW
LayerCount: 2
Fore
SplineSet
72.5 372 m 2
 72.5 388 22.3203125 392 5 402 c 0
 0.669921875 404.5 0 442 0 442 c 1
 0 442 26.25 443 76.25 443 c 3
 126.25 443 152.5 442 152.5 442 c 1
 152.5 172 l 2
 152.5 170.060546875 152.375 166.448242188 152.375 161.629882812 c 0
 152.375 129.181640625 152.938476562 42 226 42 c 3
 275.521484375 42 329.420898438 81.4052734375 357.5 105.24609375 c 1
 357.5 372 l 2
 357.5 387 307.3203125 392 290 402 c 0
 285.669921875 404.5 285 442 285 442 c 1
 285 442 311.25 443 361.25 443 c 3
 411.25 443 437.5 442 437.5 442 c 1
 437.5 75 l 2
 437.5 40 487.6796875 55 505 45 c 0
 509.330078125 42.5 510 5 510 5 c 1
 476 1 404 -5 365 -5 c 0
 360.663085938 -5 358.20703125 36.375 357.631835938 47.3525390625 c 1
 329.545898438 25.181640625 275.58984375 -10 216 -10 c 3
 153.967773438 -10 72.498046875 24.79296875 72.498046875 145.916992188 c 2
 72.5 372 l 2
EndSplineSet
Validated: 1
EndChar
StartChar: v
Encoding: 118 118 21
Width: 535
VWidth: 0
Flags: HMW
LayerCount: 2
Fore
SplineSet
70 400 m 5
 70 400 8.75 401.25 7.5 402.5 c 4
 6.248046875 403.751953125 5 412.25 5 422.25 c 7
 5 432.25 6.2490234375 440.749023438 7.5 442 c 4
 8.40625 442.90625 60.552734375 443.008789062 95.478515625 443.008789062 c 4
 105.698242188 443.008789062 114.444335938 443 120 443 c 4
 124.426757812 443 130.828125 443.00390625 138.389648438 443.00390625 c 4
 174.35546875 443.00390625 236.576171875 442.923828125 237.5 442 c 4
 238.751953125 440.748046875 240 432.25 240 422.25 c 4
 240 412.25 238.751953125 403.751953125 237.5 402.5 c 4
 236.25 401.25 160 400 160 400 c 5
 283 130 l 5
 390 400 l 5
 390 400 338.75 401.25 337.5 402.5 c 4
 336.875 403.125 336.5625 412.6875 336.5625 422.25 c 4
 336.5625 431.8125 336.875 441.375 337.5 442 c 4
 338.127929688 442.627929688 413 443 423 443 c 7
 433 443 496.877929688 442.622070312 497.5 442 c 4
 498.75 440.75 500 432.25 500 422.25 c 4
 500 412.25 498.75 403.75 497.5 402.5 c 4
 496.25 401.25 445 400 445 400 c 5
 290 5 l 22
 289.11328125 2.740234375 284 -10 272 -10 c 7
 257.96484375 -10 253.169921875 2.4609375 252 5 c 14
 70 400 l 5
EndSplineSet
EndChar
StartChar: w
Encoding: 119 119 28
Width: 780
VWidth: 0
Flags: HMW
LayerCount: 2
Fore
SplineSet
252 5 m 2
 70 400 l 1
 70 400 8.75 401.25 7.5 402.5 c 0
 6.248046875 403.751953125 5 412.25 5 422.25 c 0
 5 432.25 6.2490234375 440.749023438 7.5 442 c 0
 8.40625 442.90625 60.552734375 443.008789062 95.478515625 443.008789062 c 0
 105.698242188 443.008789062 114.444335938 443 120 443 c 0
 124.426757812 443 130.828125 443.00390625 138.389648438 443.00390625 c 2
 369 443 l 2
 373.426757812 443 379.828125 443.00390625 387.389648438 443.00390625 c 0
 393.942382812 443.00390625 397.366210938 442.991210938 405.131835938 442.991210938 c 0
 406.796875 442.997070312 408.114257812 443 409 443 c 0
 432.568359375 443 490.97265625 444.52734375 493.5 442 c 0
 494.75 440.75 496 432.25 496 422.25 c 0
 496 412.25 494.75 403.75 493.5 402.5 c 0
 492.25 401.25 441 400 441 400 c 1
 423.732421875 368.73828125 l 1
 533 130 l 1
 635 400 l 1
 635 400 583.75 401.25 582.5 402.5 c 0
 581.875 403.125 581.5625 412.6875 581.5625 422.25 c 0
 581.5625 431.8125 581.875 441.375 582.5 442 c 0
 583.127929688 442.627929688 648 443 658 443 c 0
 668 443 741.877929688 442.622070312 742.5 442 c 0
 743.75 440.75 745 432.25 745 422.25 c 0
 745 412.25 743.75 403.75 742.5 402.5 c 0
 741.25 401.25 690 400 690 400 c 1
 535 5 l 2
 534.3203125 3.2666015625 527 -10 517 -10 c 0
 504 -10 498.4296875 1.7470703125 497 5 c 2
 388 253 l 1
 290 5 l 2
 289 3 282 -10 272 -10 c 0
 259 -10 253 2 252 5 c 2
160 400 m 1
 283 130 l 1
 357.811523438 315.767578125 l 1
 319 400 l 1
 160 400 l 1
EndSplineSet
EndChar
StartChar: x
Encoding: 120 120 30
Width: 553
VWidth: 0
Flags: HMW
LayerCount: 2
Fore
SplineSet
263.20703125 182.241210938 m 5
 144 51 l 5
 144 51 201.5 47.5 204 45 c 4
 206.5 42.5 209 0 209 0 c 5
 24 0 l 5
 24 0 26.5 42.5 29 45 c 4
 31.5 47.5 84 52 84 52 c 5
 235.990234375 216.262695312 l 5
 89 400 l 5
 89 400 27.75 401.25 26.5 402.5 c 4
 25.248046875 403.751953125 24 412.25 24 422.25 c 4
 24 432.25 25.2490234375 440.749023438 26.5 442 c 4
 27.40625 442.90625 79.552734375 443.008789062 114.478515625 443.008789062 c 4
 124.698242188 443.008789062 133.444335938 443 139 443 c 4
 143.426757812 443 149.828125 443.00390625 157.389648438 443.00390625 c 4
 193.35546875 443.00390625 255.576171875 442.923828125 256.5 442 c 4
 257.751953125 440.748046875 259 432.25 259 422.25 c 4
 259 412.25 257.751953125 403.751953125 256.5 402.5 c 4
 255.25 401.25 179 400 179 400 c 5
 284.9453125 269.170898438 l 5
 406 400 l 5
 406 400 357.75 401.25 356.5 402.5 c 4
 355.875 403.125 355.5625 412.6875 355.5625 422.25 c 4
 355.5625 431.8125 355.875 441.375 356.5 442 c 4
 357.127929688 442.627929688 422 443 432 443 c 4
 442 443 505.877929688 442.622070312 506.5 442 c 4
 507.75 440.75 509 432.25 509 422.25 c 4
 509 412.25 507.75 403.75 506.5 402.5 c 4
 505.25 401.25 461 400 461 400 c 5
 311.915039062 235.866210938 l 5
 460 53 l 5
 476 50 521.497070312 47.5029296875 524 45 c 4
 526.5 42.5 529 0 529 0 c 5
 304 0 l 5
 304 0 306.497070312 42.4970703125 309 45 c 4
 311.5 47.5 369 50 369 50 c 5
 263.20703125 182.241210938 l 5
EndSplineSet
Validated: 1
EndChar
StartChar: y
Encoding: 121 121 29
Width: 495
VWidth: 0
Flags: HMW
LayerCount: 2
Fore
SplineSet
273 -29 m 2
 235.132222352 -123.449282621 202.005555384 -240 112 -240 c 3
 63.9892578125 -240 30 -212 30 -180 c 3
 30 -153.98046875 52.939453125 -134 86 -134 c 3
 130.045898438 -134 132.0703125 -193.549804688 157 -152 c 24
 196 -83 239.647460938 31.80859375 239.647460938 31.80859375 c 1
 70 400 l 1
 70 400 8.75 401.25 7.5 402.5 c 0
 6.248046875 403.751953125 5 412.25 5 422.25 c 3
 5 432.25 6.2490234375 440.749023438 7.5 442 c 0
 8.40625 442.90625 60.552734375 443.008789062 95.478515625 443.008789062 c 0
 105.698242188 443.008789062 114.444335938 443 120 443 c 0
 124.426757812 443 130.828125 443.00390625 138.389648438 443.00390625 c 0
 174.35546875 443.00390625 236.576171875 442.923828125 237.5 442 c 0
 238.751953125 440.748046875 240 432.25 240 422.25 c 0
 240 412.25 238.751953125 403.751953125 237.5 402.5 c 0
 236.25 401.25 160 400 160 400 c 1
 283 130 l 1
 390 400 l 1
 390 400 338.75 401.25 337.5 402.5 c 0
 336.875 403.125 336.5625 412.6875 336.5625 422.25 c 0
 336.5625 431.8125 336.875 441.375 337.5 442 c 0
 338.127929688 442.627929688 403 443 413 443 c 3
 423 443 496.877929688 442.622070312 497.5 442 c 0
 498.75 440.75 500 432.25 500 422.25 c 0
 500 412.25 498.75 403.75 497.5 402.5 c 0
 496.25 401.25 445 400 445 400 c 1
 445 400 273 -29 273 -29 c 2
EndSplineSet
Validated: 33
EndChar
StartChar: z
Encoding: 122 122 35
Width: 447
VWidth: 0
Flags: HMW
LayerCount: 2
Fore
SplineSet
145 40 m 9
 307 40 l 2
 340 40 366 89 375 157 c 1
 375 159.5 382 160.75 393.5 160.75 c 0
 402.25 160.75 410 159.5 410 157 c 1
 403 0 l 25
 45 0 l 17
 45 30 l 1
 295 405 l 9
 204 405 l 18
 117 405 102 365 95 313 c 1
 95 308 86 305 77 305 c 0
 68 305 60 308 60 313 c 9
 70 445 l 25
 395 445 l 17
 395 415 l 1
 145 40 l 9
EndSplineSet
EndChar
StartChar: f_f
Encoding: 64256 64256 25
Width: 585
VWidth: 0
Flags: HMW
LayerCount: 2
Fore
SplineSet
177.5 75 m 6
 177.5 40.02734375 227.6796875 55 245 45 c 4
 249.330078125 42.5 250 0 250 0 c 5
 25 0 l 5
 25 0 25.669921875 42.5 30 45 c 4
 47.3203125 55 98 40 97.5 75 c 6
 97.5 377 l 5
 70.416015625 377 45.67578125 370.40625 31.7548828125 370.40625 c 4
 24.3447265625 370.40625 20 373 20 378 c 4
 20 381.251953125 24.33984375 397.453125 30 405 c 4
 33 409 97.5 443 97.5 443 c 5
 97.5 450 l 5
 97.5 732 256.9921875 800 323 800 c 4
 374.830548546 800 429.614403425 767.751856705 451.794768501 738.764960201 c 5
 492.604395312 786.649836459 539.103735507 800 565 800 c 4
 649.053710938 800 685 746.064453125 685 715 c 4
 685 682.984375 673 654 638 654 c 4
 584.961914062 654 628.005859375 735 545 735 c 4
 477 735 452.5 609 452.5 450 c 6
 452.5 443 l 5
 547 443 l 5
 547 443 555 426 555 411 c 4
 555 396 547 377 547 377 c 5
 452.5 377 l 5
 452.5 75 l 6
 452.5 40.02734375 502.6796875 55 520 45 c 4
 524.330078125 42.5 525 0 525 0 c 5
 300 0 l 5
 300 0 300.669921875 42.5 305 45 c 4
 322.3203125 55 373 40 372.5 75 c 6
 372.5 377 l 5
 177.5 377 l 5
 177.5 75 l 6
410.832892744 671.891583605 m 5
 396.792671311 695.74672894 366.998990558 735.000000001 312 735 c 4
 219.994565378 735 177.5 609 177.5 450 c 6
 177.5 443 l 5
 372.5 443 l 5
 372.5 450 l 6
 372.5 548.305392515 388.092496089 620.001268775 410.832892744 671.891583605 c 5
EndSplineSet
Validated: 33
LCarets2: 1 0
Ligature2: "Latin Ligatures-1" f f
EndChar
StartChar: f_i
Encoding: 64257 64257 22
Width: 555
VWidth: 0
LigCaretCntFixed: 1
Flags: MW
LayerCount: 2
Fore
SplineSet
452.5 75 m 6
 452.5 40 502.6796875 55 520 45 c 4
 524.330078125 42.5 525 0 525 0 c 5
 300 0 l 5
 300 0 300.669921875 42.5 305 45 c 4
 322.3203125 55 372.5 40 372.5 75 c 6
 372.5 350 l 5
 372.5 350 372 377 338.857297989 377 c 6
 177.5 377 l 1
 177.5 75 l 2
 177.5 40.02734375 227.6796875 55 245 45 c 0
 249.330078125 42.5 250 0 250 0 c 1
 25 0 l 1
 25 0 25.669921875 42.5 30 45 c 0
 47.3203125 55 98 40 97.5 75 c 2
 97.5 377 l 1
 70.416015625 377 45.67578125 370.40625 31.7548828125 370.40625 c 0
 24.3447265625 370.40625 20 373 20 378 c 0
 20 381.251953125 24.33984375 397.453125 30 405 c 0
 33 409 97.5 443 97.5 443 c 1
 97.5 450 l 2
 97.5 744 236.961914062 800 290 800 c 0
 374.053710938 800 410 746.064453125 410 715 c 0
 410 682.984375 398 654 363 654 c 0
 309.961914062 654 353.005859375 735 270 735 c 0
 202 735 177.5 609 177.5 450 c 2
 177.5 443 l 1
 385 443 l 6
 401.383789062 443 433 461 438 461 c 7
 447.848947854 461 452.5 449.600585938 452.5 442 c 6
 452.5 75 l 6
EndSplineSet
Validated: 33
Ligature2: "Latin Ligatures-1" f i
LCarets2: 1 310
EndChar
StartChar: f_l
Encoding: 64258 64258 23
Width: 590
VWidth: 0
Flags: HMW
LayerCount: 2
Fore
SplineSet
477.5 75 m 2
 477.5 40 527.6796875 55 545 45 c 0
 549.330078125 42.5 550 0 550 0 c 1
 325 0 l 1
 325 0 325.669921875 42.5 330 45 c 0
 347.3203125 55 397.5 40 397.5 75 c 2
 397.5 654.786132812 l 2
 394.541015625 654.26953125 391.377929688 654 388 654 c 0
 334.961914062 654 378.005859375 735 295 735 c 0
 227 735 202.5 609 202.5 450 c 2
 202.5 443 l 1
 297 443 l 1
 297 443 305 426 305 411 c 0
 305 396 297 377 297 377 c 1
 202.5 377 l 1
 202.5 75 l 2
 202.5 40.02734375 252.6796875 55 270 45 c 0
 274.330078125 42.5 275 0 275 0 c 1
 50 0 l 1
 50 0 50.669921875 42.5 55 45 c 0
 72.3203125 55 123 40 122.5 75 c 2
 122.5 377 l 1
 95.416015625 377 70.67578125 370.40625 56.7548828125 370.40625 c 0
 49.3447265625 370.40625 45 373 45 378 c 0
 45 381.251953125 49.33984375 397.453125 55 405 c 0
 58 409 122.5 443 122.5 443 c 1
 122.5 450 l 2
 122.5 744 261.961914062 800 315 800 c 0
 356.256835938 800 385.922851562 787.005859375 405.4375 770.100585938 c 1
 462.810546875 796.08203125 456.096679688 799.013671875 463 800 c 0
 472.75 801.392578125 477.5 788.600585938 477.5 781 c 2
 477.5 75 l 2
EndSplineSet
LCarets2: 1 0
Ligature2: "Latin Ligatures-1" f l
EndChar
StartChar: f_f_i
Encoding: 64259 64259 24
Width: 830
VWidth: 0
Flags: HMW
LayerCount: 2
Fore
SplineSet
614 377 m 5
 452.5 377 l 5
 452.5 75 l 6
 452.5 40.02734375 502.6796875 55 520 45 c 4
 524.330078125 42.5 525 0 525 0 c 5
 300 0 l 5
 300 0 300.669921875 42.5 305 45 c 4
 322.3203125 55 373 40 372.5 75 c 6
 372.5 377 l 5
 177.5 377 l 5
 177.5 75 l 6
 177.5 40.02734375 227.6796875 55 245 45 c 4
 249.330078125 42.5 250 0 250 0 c 5
 25 0 l 5
 25 0 25.669921875 42.5 30 45 c 4
 47.3203125 55 98 40 97.5 75 c 6
 97.5 377 l 5
 70.416015625 377 45.67578125 370.40625 31.7548828125 370.40625 c 4
 24.3447265625 370.40625 20 373 20 378 c 4
 20 381.251953125 24.33984375 397.453125 30 405 c 4
 33 409 97.5 443 97.5 443 c 5
 97.5 450 l 5
 97.5 732 256.9921875 800 323 800 c 4
 374.830548546 800 429.614403425 767.751856705 451.794768501 738.764960201 c 5
 492.604395312 786.649836459 539.103735507 800 565 800 c 4
 649.053710938 800 685 746.064453125 685 715 c 4
 685 682.984375 673 654 638 654 c 4
 584.961914062 654 628.005859375 735 545 735 c 4
 477 735 452.5 609 452.5 450 c 6
 452.5 443 l 5
 660 443 l 5
 676.383789062 443 708 461 713 461 c 7
 722.848632812 461 727.5 449.600585938 727.5 442 c 6
 727.5 75 l 6
 727.5 40 777.6796875 55 795 45 c 4
 799.330078125 42.5 800 0 800 0 c 5
 575 0 l 5
 575 0 575.669921875 42.5 580 45 c 4
 597.3203125 55 647.5 40 647.5 75 c 6
 647.5 350 l 5
 647.5 350 647 377 614 377 c 5
410.832892744 671.891583605 m 5
 396.792671311 695.74672894 366.998990558 735.000000001 312 735 c 4
 219.994565378 735 177.5 609 177.5 450 c 6
 177.5 443 l 5
 372.5 443 l 5
 372.5 450 l 6
 372.5 548.305392515 388.092496089 620.001268775 410.832892744 671.891583605 c 5
EndSplineSet
Validated: 33
LCarets2: 2 0 0
Ligature2: "Latin Ligatures-1" f f i
EndChar
StartChar: f_f_l
Encoding: 64260 64260 26
Width: 865
VWidth: 0
Flags: HMW
LayerCount: 2
Fore
SplineSet
435.833007812 671.891601562 m 1
 421.79296875 695.747070312 391.999023438 735 337 735 c 0
 244.994140625 735 202.5 609 202.5 450 c 2
 202.5 443 l 1
 397.5 443 l 1
 397.5 450 l 2
 397.5 548.305664062 413.092773438 620.000976562 435.833007812 671.891601562 c 1
202.5 75 m 2
 202.5 40.02734375 252.6796875 55 270 45 c 0
 274.330078125 42.5 275 0 275 0 c 1
 50 0 l 1
 50 0 50.669921875 42.5 55 45 c 0
 72.3203125 55 123 40 122.5 75 c 2
 122.5 377 l 1
 95.416015625 377 70.67578125 370.40625 56.7548828125 370.40625 c 0
 49.3447265625 370.40625 45 373 45 378 c 0
 45 381.251953125 49.33984375 397.453125 55 405 c 0
 58 409 122.5 443 122.5 443 c 1
 122.5 450 l 2
 122.5 732 281.9921875 800 348 800 c 0
 399.830078125 800 454.614257812 767.751953125 476.794921875 738.764648438 c 1
 517.604492188 786.649414062 564.103515625 800 590 800 c 0
 631.256835938 800 660.922851562 787.005859375 680.4375 770.100585938 c 1
 737.810546875 796.08203125 731.096679688 799.013671875 738 800 c 0
 747.75 801.392578125 752.5 788.600585938 752.5 781 c 2
 752.5 75 l 2
 752.5 40 802.6796875 55 820 45 c 0
 824.330078125 42.5 825 0 825 0 c 1
 600 0 l 1
 600 0 600.669921875 42.5 605 45 c 0
 622.3203125 55 672.5 40 672.5 75 c 2
 672.5 654.786132812 l 2
 669.541015625 654.26953125 666.377929688 654 663 654 c 0
 609.961914062 654 653.005859375 735 570 735 c 0
 502 735 477.5 609 477.5 450 c 2
 477.5 443 l 1
 572 443 l 1
 572 443 580 426 580 411 c 0
 580 396 572 377 572 377 c 1
 477.5 377 l 1
 477.5 75 l 2
 477.5 40.02734375 527.6796875 55 545 45 c 0
 549.330078125 42.5 550 0 550 0 c 1
 325 0 l 1
 325 0 325.669921875 42.5 330 45 c 0
 347.3203125 55 398 40 397.5 75 c 2
 397.5 377 l 1
 202.5 377 l 1
 202.5 75 l 2
EndSplineSet
Ligature2: "Latin Ligatures-1" f f l
EndChar
StartChar: f_j
Encoding: 64263 64263 32
Width: 505
VWidth: 0
LigCaretCntFixed: 1
Flags: MW
LayerCount: 2
Fore
SplineSet
375.5 -135 m 9
 375 350 l 1
 375 350 374.5 377 341.357421875 377 c 2
 177.5 377 l 1
 177.5 75 l 2
 177.5 40.02734375 227.6796875 55 245 45 c 0
 249.330078125 42.5 250 0 250 0 c 1
 25 0 l 1
 25 0 25.669921875 42.5 30 45 c 0
 47.3203125 55 98 40 97.5 75 c 2
 97.5 377 l 1
 70.416015625 377 45.67578125 370.40625 31.7548828125 370.40625 c 0
 24.3447265625 370.40625 20 373 20 378 c 0
 20 381.251953125 24.33984375 397.453125 30 405 c 0
 33 409 97.5 443 97.5 443 c 1
 97.5 450 l 2
 97.5 744 236.961914062 800 290 800 c 0
 374.053710938 800 410 746.064453125 410 715 c 0
 410 682.984375 398 654 363 654 c 0
 309.961914062 654 353.005859375 735 270 735 c 0
 202 735 177.5 609 177.5 450 c 2
 177.5 443 l 1
 387.5 443 l 2
 403.883789062 443 435.5 461 440.5 461 c 3
 450.348632812 461 455 449.600585938 455 442 c 9
 454.72265625 -119 l 2
 454.688476562 -189 363.5 -270 304.5 -300 c 1
 303.111328125 -291.66796875 301.72265625 -285.404296875 301.72265625 -278.620117188 c 3
 301.72265625 -270.748046875 303.591796875 -263.51953125 309.5 -256 c 0
 323.049804688 -238.754882812 375.5 -170 375.5 -135 c 9
375.5 -136 m 1049
EndSplineSet
Validated: 33
Ligature2: "Latin Ligatures-1" f j
LCarets2: 1 310
EndChar
StartChar: f_f_j
Encoding: 65537 -1 27
Width: 805
VWidth: 0
Flags: MW
LayerCount: 2
Fore
SplineSet
650 -135 m 9
 650 350 l 1
 650 350 649.5 377 616.5 377 c 1
 452.5 377 l 1
 452.5 75 l 2
 452.5 40.02734375 502.6796875 55 520 45 c 0
 524.330078125 42.5 525 0 525 0 c 1
 300 0 l 1
 300 0 300.669921875 42.5 305 45 c 0
 322.3203125 55 373 40 372.5 75 c 2
 372.5 377 l 1
 177.5 377 l 1
 177.5 75 l 2
 177.5 40.02734375 227.6796875 55 245 45 c 0
 249.330078125 42.5 250 0 250 0 c 1
 25 0 l 1
 25 0 25.669921875 42.5 30 45 c 0
 47.3203125 55 98 40 97.5 75 c 2
 97.5 377 l 1
 70.416015625 377 45.67578125 370.40625 31.7548828125 370.40625 c 0
 24.3447265625 370.40625 20 373 20 378 c 0
 20 381.251953125 24.33984375 397.453125 30 405 c 0
 33 409 97.5 443 97.5 443 c 1
 97.5 450 l 1
 97.5 732 256.9921875 800 323 800 c 0
 374.830548546 800 429.614403425 767.751856705 451.794768501 738.764960201 c 1
 492.604395312 786.649836459 539.103735507 800 565 800 c 0
 649.053710938 800 685 746.064453125 685 715 c 0
 685 682.984375 673 654 638 654 c 0
 584.961914062 654 628.005859375 735 545 735 c 0
 477 735 452.5 609 452.5 450 c 2
 452.5 443 l 1
 662.5 443 l 1
 678.883789062 443 710.5 461 715.5 461 c 3
 725.348632812 461 730 449.600585938 730 442 c 9
 729.72265625 -119 l 2
 729.688050154 -188.99984578 638.5 -270 579.5 -300 c 1
 578.111328125 -291.66796875 576.72265625 -285.404296875 576.72265625 -278.620117188 c 3
 576.72265625 -270.748046875 578.591796875 -263.51953125 584.5 -256 c 0
 598.049884468 -238.754692496 650 -170 650 -135 c 9
410.832892744 671.891583605 m 1
 396.792671311 695.74672894 366.998990558 735.000000001 312 735 c 0
 219.994565378 735 177.5 609 177.5 450 c 2
 177.5 443 l 1
 372.5 443 l 1
 372.5 450 l 2
 372.5 548.305392515 388.092496089 620.001268775 410.832892744 671.891583605 c 1
EndSplineSet
Validated: 33
Ligature2: "Latin Ligatures-1" f f j
EndChar
